<?xml version="1.0" encoding="UTF-8"?>
<svg xmlns="http://www.w3.org/2000/svg" xmlns:xlink="http://www.w3.org/1999/xlink" width="94pt" height="35pt" viewBox="0 0 94 35" version="1.1">
<defs>
<clipPath id="clip1">
  <path d="M 61 2 L 82 2 L 82 22 L 61 22 Z M 61 2 "/>
</clipPath>
<clipPath id="clip2">
  <path d="M 80 5.105469 C 77.078125 1.210938 70.882812 0.949219 66.167969 4.519531 C 61.453125 8.089844 59.996094 14.140625 62.917969 18.035156 C 65.839844 21.929688 72.035156 22.195312 76.75 18.625 C 81.46875 15.054688 82.921875 9.003906 80 5.105469 Z M 80 5.105469 "/>
</clipPath>
<clipPath id="clip3">
  <path d="M 50.890625 9.640625 L 75.261719 -8.808594 L 92.128906 13.671875 L 67.757812 32.117188 Z M 50.890625 9.640625 "/>
</clipPath>
<clipPath id="clip4">
  <path d="M 80 5.105469 C 77.078125 1.210938 70.882812 0.949219 66.167969 4.519531 C 61.453125 8.089844 59.996094 14.140625 62.917969 18.035156 C 65.839844 21.929688 72.035156 22.195312 76.75 18.625 C 81.46875 15.054688 82.921875 9.003906 80 5.105469 Z M 80 5.105469 "/>
</clipPath>
<clipPath id="clip5">
  <path d="M 57.679688 11.140625 L 74.746094 -1.777344 L 85.335938 12.34375 L 68.269531 25.257812 Z M 57.679688 11.140625 "/>
</clipPath>
<clipPath id="clip6">
  <path d="M 61 2 L 82 2 L 82 22 L 61 22 Z M 61 2 "/>
</clipPath>
<clipPath id="clip7">
  <path d="M 80 5.105469 C 77.078125 1.210938 70.882812 0.949219 66.167969 4.519531 C 61.453125 8.089844 59.996094 14.140625 62.917969 18.035156 C 65.839844 21.929688 72.035156 22.195312 76.75 18.625 C 81.46875 15.054688 82.921875 9.003906 80 5.105469 Z M 80 5.105469 "/>
</clipPath>
<clipPath id="clip8">
  <path d="M 50.890625 9.640625 L 75.261719 -8.808594 L 92.128906 13.671875 L 67.757812 32.117188 Z M 50.890625 9.640625 "/>
</clipPath>
<clipPath id="clip9">
  <path d="M 80 5.105469 C 77.078125 1.210938 70.882812 0.949219 66.167969 4.519531 C 61.453125 8.089844 59.996094 14.140625 62.917969 18.035156 C 65.839844 21.929688 72.035156 22.195312 76.75 18.625 C 81.46875 15.054688 82.921875 9.003906 80 5.105469 Z M 80 5.105469 "/>
</clipPath>
<clipPath id="clip10">
  <path d="M 60.109375 19.621094 L 66 -1.011719 L 82.917969 3.859375 L 77.03125 24.492188 Z M 60.109375 19.621094 "/>
</clipPath>
<clipPath id="clip11">
  <path d="M 61 2 L 82 2 L 82 22 L 61 22 Z M 61 2 "/>
</clipPath>
<clipPath id="clip12">
  <path d="M 80 5.105469 C 77.078125 1.210938 70.882812 0.949219 66.167969 4.519531 C 61.453125 8.089844 59.996094 14.140625 62.917969 18.035156 C 65.839844 21.929688 72.035156 22.195312 76.75 18.625 C 81.46875 15.054688 82.921875 9.003906 80 5.105469 Z M 80 5.105469 "/>
</clipPath>
<clipPath id="clip13">
  <path d="M 50.890625 9.640625 L 75.261719 -8.808594 L 92.128906 13.671875 L 67.757812 32.117188 Z M 50.890625 9.640625 "/>
</clipPath>
<clipPath id="clip14">
  <path d="M 80 5.105469 C 77.078125 1.210938 70.882812 0.949219 66.167969 4.519531 C 61.453125 8.089844 59.996094 14.140625 62.917969 18.035156 C 65.839844 21.929688 72.035156 22.195312 76.75 18.625 C 81.46875 15.054688 82.921875 9.003906 80 5.105469 Z M 80 5.105469 "/>
</clipPath>
<clipPath id="clip15">
  <path d="M 57.679688 11.140625 L 74.746094 -1.777344 L 85.335938 12.34375 L 68.269531 25.257812 Z M 57.679688 11.140625 "/>
</clipPath>
<clipPath id="clip16">
  <path d="M 61 2 L 82 2 L 82 22 L 61 22 Z M 61 2 "/>
</clipPath>
<clipPath id="clip17">
  <path d="M 80 5.105469 C 77.078125 1.210938 70.882812 0.949219 66.167969 4.519531 C 61.453125 8.089844 59.996094 14.140625 62.917969 18.035156 C 65.839844 21.929688 72.035156 22.195312 76.75 18.625 C 81.46875 15.054688 82.921875 9.003906 80 5.105469 Z M 80 5.105469 "/>
</clipPath>
<clipPath id="clip18">
  <path d="M 50.890625 9.640625 L 75.261719 -8.808594 L 92.128906 13.671875 L 67.757812 32.117188 Z M 50.890625 9.640625 "/>
</clipPath>
<clipPath id="clip19">
  <path d="M 80 5.105469 C 77.078125 1.210938 70.882812 0.949219 66.167969 4.519531 C 61.453125 8.089844 59.996094 14.140625 62.917969 18.035156 C 65.839844 21.929688 72.035156 22.195312 76.75 18.625 C 81.46875 15.054688 82.921875 9.003906 80 5.105469 Z M 80 5.105469 "/>
</clipPath>
<clipPath id="clip20">
  <path d="M 60.109375 19.621094 L 66 -1.011719 L 82.917969 3.859375 L 77.03125 24.492188 Z M 60.109375 19.621094 "/>
</clipPath>
<clipPath id="clip21">
  <path d="M 61 2 L 82 2 L 82 22 L 61 22 Z M 61 2 "/>
</clipPath>
<clipPath id="clip22">
  <path d="M 80 5.105469 C 77.078125 1.210938 70.882812 0.949219 66.167969 4.519531 C 61.453125 8.089844 59.996094 14.140625 62.917969 18.035156 C 65.839844 21.929688 72.035156 22.195312 76.75 18.625 C 81.46875 15.054688 82.921875 9.003906 80 5.105469 Z M 80 5.105469 "/>
</clipPath>
<clipPath id="clip23">
  <path d="M 50.890625 9.640625 L 75.261719 -8.808594 L 92.128906 13.671875 L 67.757812 32.117188 Z M 50.890625 9.640625 "/>
</clipPath>
<clipPath id="clip24">
  <path d="M 80 5.105469 C 77.078125 1.210938 70.882812 0.949219 66.167969 4.519531 C 61.453125 8.089844 59.996094 14.140625 62.917969 18.035156 C 65.839844 21.929688 72.035156 22.195312 76.75 18.625 C 81.46875 15.054688 82.921875 9.003906 80 5.105469 Z M 80 5.105469 "/>
</clipPath>
<clipPath id="clip25">
  <path d="M 61 2 L 82 2 L 82 22 L 61 22 Z M 61 2 "/>
</clipPath>
<clipPath id="clip26">
  <path d="M 80 5.105469 C 77.078125 1.210938 70.882812 0.949219 66.167969 4.519531 C 61.453125 8.089844 59.996094 14.140625 62.917969 18.035156 C 65.839844 21.929688 72.035156 22.195312 76.75 18.625 C 81.46875 15.054688 82.921875 9.003906 80 5.105469 Z M 80 5.105469 "/>
</clipPath>
<clipPath id="clip27">
  <path d="M 50.890625 9.640625 L 75.261719 -8.808594 L 92.128906 13.671875 L 67.757812 32.117188 Z M 50.890625 9.640625 "/>
</clipPath>
<clipPath id="clip28">
  <path d="M 66 6 L 78 6 L 78 18 L 66 18 Z M 66 6 "/>
</clipPath>
<clipPath id="clip29">
  <path d="M 80 5.105469 C 77.078125 1.210938 70.882812 0.949219 66.167969 4.519531 C 61.453125 8.089844 59.996094 14.140625 62.917969 18.035156 C 65.839844 21.929688 72.035156 22.195312 76.75 18.625 C 81.46875 15.054688 82.921875 9.003906 80 5.105469 Z M 80 5.105469 "/>
</clipPath>
<clipPath id="clip30">
  <path d="M 50.890625 9.640625 L 75.261719 -8.808594 L 92.128906 13.671875 L 67.757812 32.117188 Z M 50.890625 9.640625 "/>
</clipPath>
</defs>
<g id="surface1">
<path style=" stroke:none;fill-rule:nonzero;fill:rgb(0%,0%,0%);fill-opacity:1;" d="M 48.527344 11.59375 L 52.992188 11.304688 C 53.09375 12.035156 53.28125 12.582031 53.585938 12.972656 C 54.078125 13.585938 54.757812 13.894531 55.65625 13.894531 C 56.320312 13.894531 56.84375 13.742188 57.199219 13.417969 C 57.539062 13.160156 57.742188 12.753906 57.742188 12.324219 C 57.742188 11.917969 57.558594 11.523438 57.234375 11.269531 C 56.894531 10.960938 56.097656 10.65625 54.839844 10.382812 C 52.789062 9.921875 51.3125 9.308594 50.445312 8.523438 C 49.578125 7.792969 49.085938 6.71875 49.121094 5.574219 C 49.121094 4.789062 49.359375 4.007812 49.800781 3.359375 C 50.308594 2.625 51.003906 2.046875 51.835938 1.722656 C 52.738281 1.328125 53.992188 1.125 55.570312 1.125 C 57.507812 1.125 58.984375 1.484375 60 2.214844 C 61.019531 2.933594 61.632812 4.089844 61.816406 5.675781 L 57.40625 5.933594 C 57.285156 5.25 57.046875 4.757812 56.65625 4.433594 C 56.265625 4.109375 55.757812 3.957031 55.097656 3.957031 C 54.554688 3.957031 54.144531 4.074219 53.875 4.296875 C 53.621094 4.5 53.449219 4.808594 53.46875 5.148438 C 53.46875 5.402344 53.601562 5.644531 53.804688 5.796875 C 54.027344 6 54.554688 6.1875 55.386719 6.359375 C 57.4375 6.800781 58.898438 7.246094 59.796875 7.707031 C 60.699219 8.167969 61.34375 8.730469 61.734375 9.394531 C 62.140625 10.074219 62.34375 10.859375 62.328125 11.660156 C 62.328125 12.617188 62.054688 13.570312 61.511719 14.371094 C 60.953125 15.207031 60.171875 15.855469 59.253906 16.246094 C 58.289062 16.671875 57.066406 16.894531 55.605469 16.894531 C 53.027344 16.894531 51.242188 16.398438 50.242188 15.394531 C 49.242188 14.390625 48.644531 13.128906 48.527344 11.59375 Z M 1.15625 16.640625 L 1.15625 1.398438 L 8.980469 1.398438 C 10.421875 1.398438 11.542969 1.515625 12.304688 1.773438 C 13.054688 2.011719 13.714844 2.507812 14.15625 3.171875 C 14.648438 3.902344 14.886719 4.757812 14.871094 5.644531 C 14.921875 7.144531 14.15625 8.574219 12.851562 9.324219 C 12.339844 9.613281 11.78125 9.820312 11.203125 9.921875 C 11.628906 10.042969 12.050781 10.246094 12.425781 10.484375 C 12.714844 10.722656 12.953125 10.996094 13.171875 11.285156 C 13.425781 11.574219 13.648438 11.898438 13.835938 12.242188 L 16.109375 16.65625 L 10.777344 16.65625 L 8.265625 11.96875 C 7.945312 11.371094 7.671875 10.980469 7.417969 10.792969 C 7.078125 10.554688 6.671875 10.433594 6.265625 10.433594 L 5.855469 10.433594 L 5.855469 16.621094 L 1.15625 16.621094 Z M 5.855469 7.570312 L 7.84375 7.570312 C 8.265625 7.535156 8.675781 7.46875 9.082031 7.363281 C 9.386719 7.3125 9.660156 7.144531 9.84375 6.886719 C 10.304688 6.273438 10.234375 5.402344 9.675781 4.875 C 9.371094 4.621094 8.777344 4.484375 7.925781 4.484375 L 5.855469 4.484375 Z M 0.0859375 29.699219 L 4.550781 29.40625 C 4.652344 30.140625 4.839844 30.6875 5.144531 31.078125 C 5.617188 31.691406 6.316406 32.015625 7.214844 32.015625 C 7.875 32.015625 8.402344 31.863281 8.757812 31.539062 C 9.097656 31.265625 9.300781 30.875 9.300781 30.449219 C 9.300781 30.039062 9.117188 29.648438 8.792969 29.390625 C 8.453125 29.085938 7.65625 28.777344 6.382812 28.503906 C 4.328125 28.042969 2.851562 27.429688 1.988281 26.644531 C 1.121094 25.914062 0.628906 24.839844 0.664062 23.695312 C 0.664062 22.914062 0.898438 22.128906 1.339844 21.480469 C 1.851562 20.746094 2.546875 20.167969 3.378906 19.84375 C 4.277344 19.453125 5.535156 19.246094 7.113281 19.246094 C 9.046875 19.246094 10.523438 19.605469 11.542969 20.339844 C 12.5625 21.070312 13.15625 22.214844 13.34375 23.800781 L 8.929688 24.054688 C 8.808594 23.375 8.574219 22.878906 8.183594 22.554688 C 7.808594 22.230469 7.28125 22.078125 6.621094 22.09375 C 6.078125 22.09375 5.667969 22.214844 5.398438 22.453125 C 5.125 22.65625 4.972656 22.964844 4.992188 23.304688 C 4.992188 23.5625 5.125 23.800781 5.332031 23.953125 C 5.550781 24.15625 6.078125 24.34375 6.910156 24.515625 C 8.960938 24.957031 10.421875 25.402344 11.320312 25.863281 C 12.222656 26.324219 12.867188 26.886719 13.257812 27.550781 C 13.664062 28.230469 13.867188 29.015625 13.867188 29.800781 C 13.867188 30.753906 13.578125 31.691406 13.054688 32.492188 C 12.492188 33.328125 11.710938 33.976562 10.796875 34.371094 C 9.828125 34.796875 8.605469 35.015625 7.148438 35.015625 C 4.566406 35.015625 2.785156 34.523438 1.78125 33.515625 C 0.78125 32.492188 0.222656 31.230469 0.0859375 29.699219 Z M 0.0859375 29.699219 "/>
<path style=" stroke:none;fill-rule:nonzero;fill:rgb(0%,0%,0%);fill-opacity:1;" d="M 22.660156 28.503906 L 26.769531 29.75 C 26.546875 30.789062 26.089844 31.777344 25.460938 32.648438 C 24.882812 33.414062 24.121094 34.011719 23.253906 34.402344 C 22.371094 34.796875 21.25 35 19.894531 35 C 18.246094 35 16.890625 34.761719 15.855469 34.285156 C 14.800781 33.804688 13.902344 32.953125 13.136719 31.742188 C 12.375 30.535156 12 28.980469 12 27.089844 C 12 24.566406 12.664062 22.621094 14.003906 21.277344 C 15.34375 19.929688 17.230469 19.246094 19.671875 19.246094 C 21.589844 19.246094 23.085938 19.640625 24.1875 20.40625 C 25.273438 21.191406 26.089844 22.382812 26.632812 23.988281 L 22.492188 24.90625 C 22.386719 24.550781 22.234375 24.191406 22.03125 23.882812 C 21.777344 23.527344 21.457031 23.253906 21.066406 23.050781 C 20.675781 22.84375 20.234375 22.757812 19.792969 22.757812 C 18.722656 22.757812 17.90625 23.1875 17.347656 24.054688 C 16.921875 24.6875 16.703125 25.691406 16.703125 27.054688 C 16.703125 28.742188 16.957031 29.902344 17.464844 30.535156 C 17.976562 31.164062 18.6875 31.472656 19.621094 31.472656 C 20.523438 31.472656 21.199219 31.214844 21.660156 30.722656 C 22.117188 30.191406 22.457031 29.460938 22.660156 28.503906 Z M 32.25 19.503906 L 36.933594 19.503906 L 36.933594 24.839844 L 42.0625 24.839844 L 42.0625 19.503906 L 46.78125 19.503906 L 46.78125 34.746094 L 42.0625 34.746094 L 42.0625 28.574219 L 36.933594 28.574219 L 36.933594 34.746094 L 32.25 34.746094 Z M 32.25 19.503906 "/>
<path style=" stroke:none;fill-rule:nonzero;fill:rgb(0%,0%,0%);fill-opacity:1;" d="M 46.132812 27.125 C 46.132812 24.632812 46.832031 22.691406 48.207031 21.308594 C 49.578125 19.929688 51.515625 19.230469 53.976562 19.230469 C 56.503906 19.230469 58.441406 19.914062 59.816406 21.277344 C 61.191406 22.640625 61.867188 24.550781 61.867188 27.003906 C 61.867188 28.792969 61.5625 30.242188 60.96875 31.386719 C 60.390625 32.511719 59.492188 33.429688 58.390625 34.046875 C 57.25 34.675781 55.84375 35 54.164062 35 C 52.449219 35 51.039062 34.726562 49.917969 34.183594 C 48.765625 33.601562 47.816406 32.699219 47.1875 31.589844 C 46.492188 30.398438 46.132812 28.914062 46.132812 27.125 Z M 50.820312 27.140625 C 50.820312 28.675781 51.109375 29.785156 51.667969 30.464844 C 52.226562 31.128906 53.007812 31.472656 53.992188 31.472656 C 54.996094 31.472656 55.773438 31.148438 56.335938 30.480469 C 56.894531 29.816406 57.167969 28.640625 57.167969 26.9375 C 57.167969 25.503906 56.878906 24.445312 56.300781 23.800781 C 55.722656 23.132812 54.945312 22.808594 53.960938 22.808594 C 53.09375 22.777344 52.261719 23.152344 51.683594 23.816406 C 51.109375 24.480469 50.820312 25.589844 50.820312 27.140625 Z M 66.671875 27.125 C 66.671875 24.632812 67.367188 22.691406 68.742188 21.308594 C 70.117188 19.929688 72.050781 19.230469 74.515625 19.230469 C 77.042969 19.230469 78.996094 19.914062 80.351562 21.277344 C 81.710938 22.640625 82.40625 24.550781 82.40625 27.003906 C 82.40625 28.792969 82.101562 30.242188 81.507812 31.386719 C 80.929688 32.511719 80.03125 33.429688 78.925781 34.046875 C 77.789062 34.675781 76.382812 35 74.699219 35 C 72.984375 35 71.578125 34.726562 70.457031 34.183594 C 69.304688 33.601562 68.351562 32.699219 67.722656 31.589844 C 67.027344 30.398438 66.671875 28.914062 66.671875 27.125 Z M 71.355469 27.140625 C 71.355469 28.675781 71.644531 29.785156 72.207031 30.464844 C 72.765625 31.128906 73.546875 31.472656 74.53125 31.472656 C 75.53125 31.472656 76.3125 31.148438 76.875 30.480469 C 77.433594 29.816406 77.703125 28.640625 77.703125 26.9375 C 77.703125 25.503906 77.417969 24.445312 76.839844 23.800781 C 76.261719 23.132812 75.480469 22.808594 74.496094 22.808594 C 73.632812 22.777344 72.78125 23.152344 72.222656 23.816406 C 71.644531 24.480469 71.355469 25.589844 71.355469 27.140625 Z M 71.355469 27.140625 "/>
<path style=" stroke:none;fill-rule:nonzero;fill:rgb(0%,0%,0%);fill-opacity:1;" d="M 81.914062 19.503906 L 86.597656 19.503906 L 86.597656 30.992188 L 93.914062 30.992188 L 93.914062 34.746094 L 81.898438 34.746094 L 81.898438 19.503906 Z M 81.914062 19.503906 "/>
<path style=" stroke:none;fill-rule:nonzero;fill:rgb(100%,100%,100%);fill-opacity:1;" d="M 80 5.105469 C 77.078125 1.210938 70.882812 0.949219 66.167969 4.519531 C 61.453125 8.089844 59.996094 14.140625 62.917969 18.035156 C 65.839844 21.929688 72.035156 22.195312 76.75 18.625 C 81.46875 15.054688 82.921875 9.003906 80 5.105469 Z M 80 5.105469 "/>
<g clip-path="url(#clip1)" clip-rule="nonzero">
<g clip-path="url(#clip2)" clip-rule="nonzero">
<path style=" stroke:none;fill-rule:nonzero;fill:rgb(100%,100%,100%);fill-opacity:1;" d="M 50.890625 9.640625 L 75.261719 -8.808594 L 92.128906 13.671875 L 67.757812 32.117188 Z M 50.890625 9.640625 "/>
<g clip-path="url(#clip3)" clip-rule="nonzero">
<path style=" stroke:none;fill-rule:nonzero;fill:rgb(100%,100%,100%);fill-opacity:1;" d="M 80 5.105469 C 77.078125 1.210938 70.882812 0.949219 66.167969 4.519531 C 61.453125 8.089844 59.996094 14.140625 62.917969 18.035156 C 65.839844 21.929688 72.035156 22.195312 76.75 18.625 C 81.46875 15.054688 82.921875 9.003906 80 5.105469 Z M 80 5.105469 "/>
<g clip-path="url(#clip4)" clip-rule="nonzero">
<path style=" stroke:none;fill-rule:nonzero;fill:rgb(100%,100%,100%);fill-opacity:1;" d="M 57.679688 11.140625 L 74.746094 -1.777344 L 85.335938 12.34375 L 68.269531 25.257812 Z M 57.679688 11.140625 "/>
<g clip-path="url(#clip5)" clip-rule="nonzero">
<path style="fill-rule:nonzero;fill:rgb(100%,100%,100%);fill-opacity:1;stroke-width:4;stroke-linecap:butt;stroke-linejoin:miter;stroke:rgb(0%,0%,0%);stroke-opacity:1;stroke-miterlimit:10;" d="M 483.509719 67.895487 C 483.510108 39.291356 455.284021 16.098439 420.496119 16.106035 C 385.708218 16.113631 357.492432 39.292315 357.492044 67.896446 C 357.491655 96.500576 385.703952 119.711792 420.491854 119.704197 C 455.298135 119.710451 483.495541 96.517916 483.509719 67.895487 Z M 483.509719 67.895487 " transform="matrix(0.135553,-0.102601,0.102151,0.136151,7.523034,45.470053)"/>
</g>
</g>
</g>
</g>
</g>
<g clip-path="url(#clip6)" clip-rule="nonzero">
<g clip-path="url(#clip7)" clip-rule="nonzero">
<g clip-path="url(#clip8)" clip-rule="nonzero">
<g clip-path="url(#clip9)" clip-rule="nonzero">
<g clip-path="url(#clip10)" clip-rule="nonzero">
<path style="fill:none;stroke-width:4;stroke-linecap:butt;stroke-linejoin:miter;stroke:rgb(0%,0%,0%);stroke-opacity:1;stroke-miterlimit:10;" d="M 357.806067 17.008197 L 483.708855 17.004535 L 483.688 120.703594 L 357.799002 120.688957 Z M 357.806067 17.008197 " transform="matrix(0.135555,-0.102599,0.102148,0.136153,7.43985,45.535365)"/>
</g>
</g>
</g>
</g>
</g>
<g clip-path="url(#clip11)" clip-rule="nonzero">
<g clip-path="url(#clip12)" clip-rule="nonzero">
<g clip-path="url(#clip13)" clip-rule="nonzero">
<g clip-path="url(#clip14)" clip-rule="nonzero">
<path style="fill:none;stroke-width:4;stroke-linecap:butt;stroke-linejoin:miter;stroke:rgb(0%,0%,0%);stroke-opacity:1;stroke-miterlimit:10;" d="M 483.509719 67.895487 C 483.510108 39.291356 455.284021 16.098439 420.496119 16.106035 C 385.708218 16.113631 357.492432 39.292315 357.492044 67.896446 C 357.491655 96.500576 385.703952 119.711792 420.491854 119.704197 C 455.298135 119.710451 483.495541 96.517916 483.509719 67.895487 Z M 483.509719 67.895487 " transform="matrix(0.135553,-0.102601,0.102151,0.136151,7.523034,45.470053)"/>
<path style=" stroke:none;fill-rule:nonzero;fill:rgb(100%,100%,100%);fill-opacity:1;" d="M 57.679688 11.140625 L 74.746094 -1.777344 L 85.335938 12.34375 L 68.269531 25.257812 Z M 57.679688 11.140625 "/>
<g clip-path="url(#clip15)" clip-rule="nonzero">
<path style="fill-rule:nonzero;fill:rgb(100%,100%,100%);fill-opacity:1;stroke-width:4;stroke-linecap:butt;stroke-linejoin:miter;stroke:rgb(0%,0%,0%);stroke-opacity:1;stroke-miterlimit:10;" d="M 483.509719 67.895487 C 483.510108 39.291356 455.284021 16.098439 420.496119 16.106035 C 385.708218 16.113631 357.492432 39.292315 357.492044 67.896446 C 357.491655 96.500576 385.703952 119.711792 420.491854 119.704197 C 455.298135 119.710451 483.495541 96.517916 483.509719 67.895487 Z M 483.509719 67.895487 " transform="matrix(0.135553,-0.102601,0.102151,0.136151,7.523034,45.470053)"/>
</g>
</g>
</g>
</g>
</g>
<g clip-path="url(#clip16)" clip-rule="nonzero">
<g clip-path="url(#clip17)" clip-rule="nonzero">
<g clip-path="url(#clip18)" clip-rule="nonzero">
<g clip-path="url(#clip19)" clip-rule="nonzero">
<g clip-path="url(#clip20)" clip-rule="nonzero">
<path style="fill:none;stroke-width:4;stroke-linecap:butt;stroke-linejoin:miter;stroke:rgb(0%,0%,0%);stroke-opacity:1;stroke-miterlimit:10;" d="M 357.806067 17.008197 L 483.708855 17.004535 L 483.688 120.703594 L 357.799002 120.688957 Z M 357.806067 17.008197 " transform="matrix(0.135555,-0.102599,0.102148,0.136153,7.43985,45.535365)"/>
</g>
</g>
</g>
</g>
</g>
<g clip-path="url(#clip21)" clip-rule="nonzero">
<g clip-path="url(#clip22)" clip-rule="nonzero">
<g clip-path="url(#clip23)" clip-rule="nonzero">
<g clip-path="url(#clip24)" clip-rule="nonzero">
<path style="fill:none;stroke-width:4;stroke-linecap:butt;stroke-linejoin:miter;stroke:rgb(0%,0%,0%);stroke-opacity:1;stroke-miterlimit:10;" d="M 330.892524 -14.194888 L 510.691285 -14.20709 L 510.694682 150.909267 L 330.909711 150.90317 Z M 330.892524 -14.194888 " transform="matrix(0.135553,-0.102601,0.102151,0.136151,7.487021,45.523228)"/>
</g>
</g>
</g>
</g>
<g clip-path="url(#clip25)" clip-rule="nonzero">
<g clip-path="url(#clip26)" clip-rule="nonzero">
<g clip-path="url(#clip27)" clip-rule="nonzero">
<path style="fill:none;stroke-width:4;stroke-linecap:butt;stroke-linejoin:miter;stroke:rgb(0%,0%,0%);stroke-opacity:1;stroke-miterlimit:10;" d="M 483.509719 67.895487 C 483.510108 39.291356 455.284021 16.098439 420.496119 16.106035 C 385.708218 16.113631 357.492432 39.292315 357.492044 67.896446 C 357.491655 96.500576 385.703952 119.711792 420.491854 119.704197 C 455.298135 119.710451 483.495541 96.517916 483.509719 67.895487 Z M 483.509719 67.895487 " transform="matrix(0.135553,-0.102601,0.102151,0.136151,7.523034,45.470053)"/>
</g>
</g>
</g>
<g clip-path="url(#clip28)" clip-rule="nonzero">
<g clip-path="url(#clip29)" clip-rule="nonzero">
<g clip-path="url(#clip30)" clip-rule="nonzero">
<path style=" stroke:none;fill-rule:nonzero;fill:rgb(0%,0%,0%);fill-opacity:1;" d="M 66.6875 10.449219 L 68.386719 9.257812 L 70.472656 12.242188 C 70.832031 12.71875 71.101562 13.230469 71.304688 13.792969 C 71.425781 14.21875 71.390625 14.679688 71.222656 15.085938 C 71 15.597656 70.644531 16.023438 70.167969 16.332031 C 69.609375 16.722656 69.132812 16.945312 68.726562 17.015625 C 68.335938 17.082031 67.929688 17.015625 67.554688 16.84375 C 67.148438 16.640625 66.789062 16.347656 66.519531 15.972656 L 67.980469 14.609375 C 68.097656 14.796875 68.25 14.96875 68.421875 15.105469 C 68.539062 15.191406 68.675781 15.242188 68.828125 15.242188 C 68.945312 15.242188 69.066406 15.191406 69.148438 15.121094 C 69.320312 15.019531 69.4375 14.816406 69.421875 14.609375 C 69.371094 14.320312 69.253906 14.03125 69.066406 13.808594 Z M 71.78125 12.34375 L 73.324219 11.117188 C 73.496094 11.320312 73.714844 11.472656 73.953125 11.558594 C 74.292969 11.660156 74.648438 11.59375 74.9375 11.371094 C 75.140625 11.234375 75.3125 11.046875 75.378906 10.808594 C 75.480469 10.5 75.3125 10.160156 75.007812 10.058594 C 74.957031 10.042969 74.902344 10.023438 74.851562 10.023438 C 74.648438 10.007812 74.292969 10.09375 73.765625 10.3125 C 72.902344 10.671875 72.222656 10.808594 71.714844 10.757812 C 71.222656 10.707031 70.761719 10.449219 70.492188 10.023438 C 70.289062 9.734375 70.1875 9.394531 70.167969 9.050781 C 70.167969 8.660156 70.269531 8.269531 70.492188 7.945312 C 70.8125 7.484375 71.203125 7.09375 71.679688 6.785156 C 72.390625 6.289062 73.019531 6.050781 73.5625 6.050781 C 74.105469 6.050781 74.617188 6.308594 75.089844 6.835938 L 73.5625 8.046875 C 73.257812 7.65625 72.679688 7.570312 72.289062 7.875 L 72.238281 7.925781 C 72.070312 8.03125 71.949219 8.183594 71.882812 8.371094 C 71.832031 8.507812 71.867188 8.660156 71.949219 8.78125 C 72.019531 8.863281 72.121094 8.933594 72.238281 8.933594 C 72.375 8.949219 72.613281 8.882812 72.953125 8.730469 C 73.800781 8.371094 74.445312 8.167969 74.886719 8.097656 C 75.261719 8.03125 75.652344 8.0625 76.007812 8.21875 C 76.328125 8.355469 76.601562 8.59375 76.789062 8.882812 C 77.027344 9.222656 77.160156 9.632812 77.179688 10.058594 C 77.195312 10.5 77.078125 10.929688 76.839844 11.304688 C 76.535156 11.761719 76.144531 12.15625 75.683594 12.460938 C 74.75 13.109375 73.988281 13.382812 73.375 13.28125 C 72.714844 13.179688 72.171875 12.835938 71.78125 12.34375 Z M 71.78125 12.34375 "/>
</g>
</g>
</g>
</g>
</svg>
